<?xml version="1.0" encoding="UTF-8" standalone="no"?>
<!-- Generator: Adobe Illustrator 21.1.0, SVG Export Plug-In . SVG Version: 6.00 Build 0)  -->

<svg
   xmlns:dc="http://purl.org/dc/elements/1.1/"
   xmlns:cc="http://creativecommons.org/ns#"
   xmlns:rdf="http://www.w3.org/1999/02/22-rdf-syntax-ns#"
   xmlns:svg="http://www.w3.org/2000/svg"
   xmlns="http://www.w3.org/2000/svg"
   xmlns:sodipodi="http://sodipodi.sourceforge.net/DTD/sodipodi-0.dtd"
   xmlns:inkscape="http://www.inkscape.org/namespaces/inkscape"
   version="1.1"
   id="Ebene_1"
   x="0px"
   y="0px"
   viewBox="0 0 100 100"
   style="enable-background:new 0 0 100 100;"
   xml:space="preserve"
   inkscape:version="0.91 r13725"
   sodipodi:docname="brain-small.svg"><metadata
     id="metadata17"><rdf:RDF><cc:Work
         rdf:about=""><dc:format>image/svg+xml</dc:format><dc:type
           rdf:resource="http://purl.org/dc/dcmitype/StillImage" /></cc:Work></rdf:RDF></metadata><defs
     id="defs15" /><sodipodi:namedview
     pagecolor="#ffffff"
     bordercolor="#666666"
     borderopacity="1"
     objecttolerance="10"
     gridtolerance="10"
     guidetolerance="10"
     inkscape:pageopacity="0"
     inkscape:pageshadow="2"
     inkscape:window-width="1315"
     inkscape:window-height="923"
     id="namedview13"
     showgrid="false"
     inkscape:zoom="2.36"
     inkscape:cx="50"
     inkscape:cy="50"
     inkscape:window-x="2624"
     inkscape:window-y="268"
     inkscape:window-maximized="0"
     inkscape:current-layer="Ebene_1" /><style
     type="text/css"
     id="style3">
	.st0{fill:#D3D3D3;}
</style><g
     id="g5"
     transform="matrix(0.81813591,0,0,0.70588688,12.730112,4.2961108)"><circle
       class="st0"
       cx="60.700001"
       cy="38.599998"
       id="ellipse7"
       r="3.8"
       style="fill:#d3d3d3" /><circle
       class="st0"
       cx="38.799999"
       cy="25.9"
       id="ellipse9"
       r="2.7"
       style="fill:#d3d3d3" /><path
       class="st0"
       d="m 5.6,59.1 8.3,-15.8 0,-5.1 0,0 c 0,-21 17,-38 38,-38 21,0 38,17 38,38 0,10.9 -4.6,20.8 -12,27.7 l 0,34.3 -45.1,0 0,-12 -11,0 c -4.4,0 -8,-3.6 -8,-8 l 0,-14 -4,0 C 5.5,66.2 3.5,63 5.6,59.1 Z M 46,45.4 l 1.5,2.5 4.3,-0.8 2,1.7 -0.1,4.4 2.7,1 2.8,-3.4 2.8,0 2.8,3.4 2.7,-1 -0.1,-4.4 2,-1.7 4.4,0.8 1.5,-2.5 -2.8,-3.4 0.5,-2.6 3.9,-2.2 -0.5,-2.9 -4.4,-0.7 -1.3,-2.3 1.6,-4.1 -2.2,-1.9 -3.8,2.3 -2.5,-0.9 -1.5,-4.2 -2.9,0 -1.5,4.2 -2.5,0.9 -3.8,-2.3 -2.2,1.9 1.6,4.1 -1.3,2.3 -4.4,0.7 -0.5,2.9 3.9,2.2 0.5,2.6 -3.2,3.4 z M 28.8,30 l 1.5,2.5 4,-0.8 1.8,1 1.3,3.9 2.9,0 1.3,-3.9 1.8,-1 4,0.8 1.5,-2.5 -2.8,-3 0,-2.1 2.7,-3.1 -1.5,-2.5 -4,0.8 -1.8,-1 -1.3,-3.9 -2.9,0 -1.3,3.9 -1.8,1 -4,-0.8 -1.5,2.5 2.7,3.1 0,2.1 -2.6,3 z"
       id="path11"
       inkscape:connector-curvature="0"
       style="fill:#d3d3d3" /></g></svg>